<svg viewBox="0 0 141 156" fill="none" xmlns="http://www.w3.org/2000/svg" aria-labelledby="title-constantine" role="img">
<title id="title-constantine">Constantine the Octopus</title>
<path d="M122.8 110.748C124.821 101.143 138.97 87.4395 140.743 68.6019C143.053 43.8853 130.596 0 69.7941 0C8.99239 0 0 45.3344 0 64.2548C0 89.551 18.521 102.634 17.6548 111.618C17.7373 111.659 17.8198 111.742 17.9023 111.783C18.356 121.513 8.1674 122.092 8.74489 128.096C9.19863 132.774 22.3985 133.933 31.5146 128.965C30.0709 131.739 28.0496 134.264 25.5334 135.672C20.831 138.28 17.036 139.564 17.036 142.462C17.036 145.36 31.1434 152.729 45.6219 145.567C49.9119 143.455 53.0056 141.178 55.3568 138.943C55.4393 139.439 55.4805 139.895 55.563 140.309C56.2643 144.449 58.6568 156 69.0929 156C79.529 156 81.6327 145.898 83.3652 139.895C83.489 139.398 83.6539 138.901 83.7777 138.404C86.1289 140.847 89.4289 143.331 94.0901 145.65C108.569 152.812 122.676 145.443 122.676 142.545C122.676 139.646 118.881 138.404 114.179 135.755C111.497 134.264 109.394 131.573 107.95 128.592C117.066 134.14 131.091 133.064 131.545 128.22C132.122 122.092 121.438 121.637 122.428 111.204C122.511 110.955 122.635 110.873 122.8 110.748Z" fill="#FF48D8"/>
<path d="M42.7757 96.3823C51.911 96.3823 59.3167 88.9493 59.3167 79.7804C59.3167 70.6114 51.911 63.1785 42.7757 63.1785C33.6403 63.1785 26.2346 70.6114 26.2346 79.7804C26.2346 88.9493 33.6403 96.3823 42.7757 96.3823Z" fill="white"/>
<path d="M43.8889 94.0639C50.3133 94.0639 55.5213 88.8368 55.5213 82.3888C55.5213 75.9408 50.3133 70.7136 43.8889 70.7136C37.4646 70.7136 32.2566 75.9408 32.2566 82.3888C32.2566 88.8368 37.4646 94.0639 43.8889 94.0639Z" fill="url(#constantine_paint0)"/>
<path d="M37.1246 78.828C38.5826 78.828 39.7646 77.6417 39.7646 76.1784C39.7646 74.715 38.5826 73.5287 37.1246 73.5287C35.6666 73.5287 34.4846 74.715 34.4846 76.1784C34.4846 77.6417 35.6666 78.828 37.1246 78.828Z" fill="white"/>
<path d="M94.6266 95.0987C103.056 95.0987 109.889 88.2404 109.889 79.7803C109.889 71.3201 103.056 64.4618 94.6266 64.4618C86.1974 64.4618 79.3643 71.3201 79.3643 79.7803C79.3643 88.2404 86.1974 95.0987 94.6266 95.0987Z" fill="white"/>
<path d="M94.5852 93.9809C100.987 93.9809 106.176 88.7723 106.176 82.3471C106.176 75.922 100.987 70.7134 94.5852 70.7134C88.1837 70.7134 82.9941 75.922 82.9941 82.3471C82.9941 88.7723 88.1837 93.9809 94.5852 93.9809Z" fill="url(#constantine_paint1)"/>
<path d="M88.6041 78.3313C90.0848 78.3313 91.2853 77.1264 91.2853 75.6402C91.2853 74.1539 90.0848 72.9491 88.6041 72.9491C87.1233 72.9491 85.9229 74.1539 85.9229 75.6402C85.9229 77.1264 87.1233 78.3313 88.6041 78.3313Z" fill="white"/>
<path d="M111.085 49.1433C111.497 49.3089 111.827 49.4745 112.199 49.6401C112.57 49.8057 112.9 50.0127 113.271 50.2198C113.642 50.4268 113.972 50.6338 114.344 50.9236C114.715 51.2134 115.045 51.4618 115.457 51.9586C115.87 52.4554 115.746 53.2007 115.251 53.6147C114.921 53.9045 114.467 53.9459 114.055 53.7803L113.601 53.5733C113.519 53.5319 113.23 53.4077 112.982 53.2835C112.694 53.2006 112.405 53.0764 112.075 52.9936C111.745 52.9108 111.415 52.828 111.085 52.7452C110.755 52.6624 110.384 52.621 110.095 52.5796C109.105 52.4554 108.404 51.5446 108.527 50.551C108.651 49.5573 109.559 48.8535 110.549 48.9777C110.714 48.9777 110.879 49.0605 111.002 49.1019L111.085 49.1433Z" fill="#100030"/>
<path d="M28.9156 54.4012C28.6269 54.4012 28.2556 54.4426 27.9257 54.484C27.5957 54.5254 27.2657 54.5668 26.9357 54.6496C26.6057 54.7324 26.2757 54.7738 25.9869 54.8566C25.6982 54.9394 25.4094 55.0636 25.2444 55.1464L24.9557 55.2706C24.5019 55.4776 23.9657 55.2706 23.7595 54.8152C23.6357 54.5254 23.677 54.1527 23.842 53.9043C24.1719 53.4075 24.5019 53.1177 24.8319 52.8693C25.1619 52.5795 25.4919 52.3311 25.8632 52.1241C26.1932 51.9171 26.5644 51.6687 26.8944 51.5031C27.2657 51.2961 27.5544 51.1305 27.9669 50.9234L28.0494 50.882C28.9569 50.4266 30.0706 50.8406 30.5244 51.7515C30.9781 52.6623 30.5656 53.7801 29.6581 54.2356C29.4106 54.3598 29.1631 54.4012 28.9156 54.4012Z" fill="#100030"/>
<path d="M62.8228 105.78C63.0703 106.07 63.3178 106.236 63.6478 106.401C63.9778 106.567 64.3491 106.732 64.8028 106.898C65.669 107.188 66.7003 107.312 67.7315 107.271C68.7628 107.229 69.8352 107.022 70.784 106.65C71.279 106.484 71.6915 106.277 72.0627 106.07L72.4752 105.822C72.599 105.739 72.6815 105.697 72.8052 105.656L74.6614 104.704C75.2802 104.414 76.0227 104.662 76.3114 105.242C76.3527 105.366 76.3939 105.49 76.4352 105.615C76.5177 106.277 76.4764 106.981 76.2702 107.56C76.2289 107.726 76.1877 107.85 76.1052 108.016L75.8989 108.43C75.7752 108.72 75.6102 108.927 75.4452 109.175C74.8264 110.086 74.0427 110.707 73.259 111.245C71.6502 112.28 69.8352 112.86 67.9378 112.943C66.0403 113.025 64.1016 112.611 62.3691 111.494C61.5029 110.955 60.7191 110.21 60.1004 109.217C59.5229 108.264 59.1929 106.981 59.3991 105.78C59.5641 104.911 60.4304 104.373 61.2966 104.538C61.6679 104.621 61.9566 104.787 62.1628 105.035L62.8228 105.78Z" fill="#100030"/>
<defs>
<linearGradient id="constantine_paint0" x1="54.9223" y1="82.3935" x2="31.9303" y2="82.3935" gradientUnits="userSpaceOnUse">
<stop/>
<stop offset="0.4481" stop-color="#100030"/>
<stop offset="0.8399" stop-color="#180070"/>
<stop offset="1"/>
</linearGradient>
<linearGradient id="constantine_paint1" x1="83.0638" y1="82.3287" x2="105.57" y2="82.3287" gradientUnits="userSpaceOnUse">
<stop/>
<stop offset="0.4481" stop-color="#100030"/>
<stop offset="0.8399" stop-color="#180070"/>
<stop offset="1"/>
</linearGradient>
</defs>
</svg>
